<svg width="224" height="99" viewBox="0 0 224 99" fill="none" xmlns="http://www.w3.org/2000/svg">
    <g filter="url(#filter0_d)">
        <rect x="4" width="48" height="48" rx="8" fill="#91D8ED" />
        <rect x="4.5" y="0.5" width="47" height="47" rx="7.5" stroke="white" />
    </g>
    <g filter="url(#filter1_d)">
        <rect x="172" width="48" height="48" rx="8" fill="#91D8ED" />
        <rect x="172.5" y="0.5" width="47" height="47" rx="7.5" stroke="white" />
    </g>
    <g filter="url(#filter2_d)">
        <rect x="116" width="48" height="48" rx="8" fill="#82D175" />
        <rect x="116.5" y="0.5" width="47" height="47" rx="7.5" stroke="white" />
    </g>
    <path d="M29.5527 17.9082C29.4941 19.998 29.4648 22.1562 29.4648 24.3828V31.2383C29.4648 31.5898 29.3379 31.873 29.084 32.0879C28.8496 32.3027 28.5957 32.4102 28.3223 32.4102C28.0488 32.4102 27.7754 32.3125 27.502 32.1172C27.248 31.9414 27.1016 31.6289 27.0625 31.1797V24.4414C27.0625 22.2734 27.0918 20.1738 27.1504 18.1426C26.2129 18.2402 25.373 18.3281 24.6309 18.4062C23.8887 18.4648 23.2344 18.5332 22.668 18.6113C22.2773 18.5723 21.9746 18.4355 21.7598 18.2012C21.5645 17.9668 21.4668 17.6836 21.4668 17.3516C21.4668 16.9805 21.6426 16.6973 21.9941 16.502C22.3457 16.3066 22.8145 16.1602 23.4004 16.0625C23.9863 15.9453 24.6602 15.8672 25.4219 15.8281C26.2031 15.7891 27.0234 15.7305 27.8828 15.6523C29.0742 15.5547 30.1289 15.4766 31.0469 15.418C31.9648 15.3594 32.7559 15.3301 33.4199 15.3301C34.123 15.584 34.4746 15.9746 34.4746 16.502C34.416 16.9121 34.2402 17.2051 33.9473 17.3809C33.6738 17.5566 33.3125 17.6738 32.8633 17.7324C32.4336 17.791 31.9355 17.8203 31.3691 17.8203C30.8027 17.8203 30.1973 17.8496 29.5527 17.9082Z" fill="black" />
    <path d="M200.248 15.4766C200.424 15.8086 200.512 16.1211 200.512 16.4141C200.512 16.6875 200.395 16.9316 200.16 17.1465C199.945 17.3418 199.662 17.4395 199.311 17.4395C199.076 17.4395 198.861 17.3906 198.666 17.293C197.904 16.6484 197.074 16.3262 196.176 16.3262C195.16 16.3262 194.301 16.7363 193.598 17.5566C193.578 17.6348 193.549 17.7227 193.51 17.8203C193.49 17.918 193.461 18.0059 193.422 18.084C193.422 18.9043 193.637 19.5879 194.066 20.1348C194.496 20.6621 195.033 21.1406 195.678 21.5703C196.322 21.9805 197.016 22.3711 197.758 22.7422C198.5 23.1133 199.193 23.543 199.838 24.0312C200.482 24.5195 201.02 25.1152 201.449 25.8184C201.879 26.502 202.094 27.3613 202.094 28.3965C202.094 29.2559 201.889 29.9785 201.479 30.5645C201.088 31.1504 200.59 31.6289 199.984 32C199.379 32.3516 198.734 32.6055 198.051 32.7617C197.367 32.9375 196.732 33.0254 196.146 33.0254C195.131 33.0254 194.135 32.8105 193.158 32.3809C192.182 31.9707 191.332 31.3457 190.609 30.5059C190.453 30.291 190.297 30.0176 190.141 29.6855C189.984 29.3535 189.906 29.0312 189.906 28.7188C189.906 28.3867 190.004 28.1035 190.199 27.8691C190.414 27.6152 190.717 27.4883 191.107 27.4883C191.479 27.4883 191.771 27.6543 191.986 27.9863C192.221 28.2988 192.426 28.6895 192.602 29.1582C193.109 29.666 193.656 30.0469 194.242 30.3008C194.828 30.5352 195.434 30.6523 196.059 30.6523C196.293 30.6523 196.586 30.6328 196.938 30.5938C197.289 30.5352 197.631 30.4473 197.963 30.3301C198.314 30.2129 198.627 30.0664 198.9 29.8906C199.193 29.6953 199.398 29.4609 199.516 29.1875C199.555 29.0312 199.584 28.9043 199.604 28.8066C199.643 28.6895 199.682 28.582 199.721 28.4844C199.604 27.8203 199.359 27.2441 198.988 26.7559C198.637 26.2676 198.217 25.8379 197.729 25.4668C197.24 25.0957 196.723 24.7734 196.176 24.5C195.648 24.2266 195.16 23.9629 194.711 23.709C193.91 23.2598 193.188 22.7227 192.543 22.0977C191.898 21.4531 191.41 20.5254 191.078 19.3145C190.98 18.9629 190.932 18.6309 190.932 18.3184C190.932 17.6543 191.098 17.0488 191.43 16.502C191.762 15.9551 192.191 15.4961 192.719 15.125C193.246 14.7344 193.842 14.4316 194.506 14.2168C195.17 14.002 195.844 13.8945 196.527 13.8945C197.328 13.8945 198.021 14.041 198.607 14.334C199.193 14.6074 199.74 14.9883 200.248 15.4766Z" fill="black" />
    <path d="M135.576 15.8574L135.664 15.7109C135.742 15.5547 135.898 15.418 136.133 15.3008C136.387 15.1836 136.68 15.0859 137.012 15.0078C137.344 14.9297 137.695 14.8711 138.066 14.832C138.438 14.793 138.799 14.7734 139.15 14.7734C139.775 14.7734 140.303 14.9004 140.732 15.1543C141.182 15.3887 141.543 15.6914 141.816 16.0625C142.09 16.4141 142.285 16.8047 142.402 17.2344C142.539 17.6445 142.607 18.0254 142.607 18.377C142.588 18.8262 142.529 19.2656 142.432 19.6953C142.334 20.125 142.178 20.5352 141.963 20.9258L141.641 21.5117C142.5 21.5117 143.203 21.5996 143.75 21.7754C144.297 21.9316 144.727 22.1758 145.039 22.5078C145.352 22.8203 145.566 23.2207 145.684 23.709C145.801 24.1777 145.859 24.7246 145.859 25.3496C145.859 26.1113 145.791 26.7852 145.654 27.3711C145.518 27.957 145.322 28.4746 145.068 28.9238C144.834 29.373 144.531 29.7734 144.16 30.125C143.809 30.4766 143.408 30.8086 142.959 31.1211C142.412 31.5508 141.797 31.8438 141.113 32C140.43 32.1367 139.766 32.2539 139.121 32.3516C138.711 32.3125 138.428 32.2148 138.271 32.0586L138.213 31.9414C137.998 32.0977 137.773 32.1855 137.539 32.2051C137.246 32.2051 136.963 32.1367 136.689 32C136.436 31.8438 136.289 31.541 136.25 31.0918L136.162 28.8652L136.074 27.9277C135.898 26.7949 135.732 25.75 135.576 24.793C135.42 23.8359 135.273 22.9277 135.137 22.0684C135.02 21.1895 134.902 20.3398 134.785 19.5195C134.688 18.6797 134.6 17.8008 134.521 16.8828C134.6 16.5312 134.736 16.2871 134.932 16.1504C135.146 15.9941 135.361 15.8965 135.576 15.8574ZM139.912 23.7383C139.775 24.0117 139.512 24.2559 139.121 24.4707C138.75 24.666 138.408 24.7637 138.096 24.7637H137.979L138.359 27.4297C138.496 28.4648 138.584 29.373 138.623 30.1543V30.1836H138.652C138.691 30.1836 138.74 30.1738 138.799 30.1543C141.904 29.6855 143.457 28.2402 143.457 25.8184C143.457 25.5254 143.428 25.2129 143.369 24.8809C143.33 24.5488 143.262 24.207 143.164 23.8555L143.135 23.8262C142.979 23.7676 142.744 23.709 142.432 23.6504C142.119 23.5723 141.768 23.5332 141.377 23.5332C140.928 23.5332 140.439 23.6016 139.912 23.7383ZM137.568 22.2148V22.2441C137.607 22.2441 137.754 22.1855 138.008 22.0684C138.262 21.9316 138.467 21.8438 138.623 21.8047L138.711 21.7168C139.102 21.2676 139.443 20.7402 139.736 20.1348C140.029 19.5098 140.176 18.9238 140.176 18.377C140.176 18.0059 140.088 17.6836 139.912 17.4102C139.756 17.1367 139.434 17 138.945 17C138.633 17 138.291 17.0488 137.92 17.1465C137.549 17.2441 137.227 17.3125 136.953 17.3516C136.973 17.7422 137.002 18.1621 137.041 18.6113C137.1 19.041 137.158 19.4707 137.217 19.9004C137.275 20.3301 137.334 20.75 137.393 21.1602C137.451 21.5508 137.51 21.9023 137.568 22.2148Z" fill="black" />
    <path d="M87.6745 45.6351C90.1705 44.9664 92.887 47.1979 93.5707 49.7493L94.5597 53.4403C95.8982 51.2314 99.298 50.0933 102.233 52.0975C104.24 49.9417 107.773 50.3698 109.282 52.0714C114.22 49.7322 117.432 52.3726 118.866 57.7241C118.944 58.0142 119.221 59.1324 119.299 59.42C121.071 65.9623 118.193 68.4231 118.753 73.5765C118.893 74.8609 118.071 76.0545 116.823 76.3889L98.7015 81.2445C96.7608 81.7633 94.6094 81.1397 93.2634 79.4784C91.0729 76.7944 82.4243 70.623 77.7377 62.7916C76.7371 60.9891 79.6603 54.5119 80.238 52.8042C81.2986 50.967 86.327 54.2784 85.2063 59.7551C85.9481 60.5916 85.6606 60.7552 86.6974 61.1388L85.5039 56.6847L84.3104 52.2306C83.6466 49.7531 85.2147 46.2943 87.6745 45.6351Z" fill="#D59D76" />
    <g filter="url(#filter3_d)">
        <rect x="57" y="12.4433" width="48" height="48" rx="8" transform="rotate(-15 57 12.4433)" fill="#FFD600" />
        <rect x="57.6124" y="12.7969" width="47" height="47" rx="7.5" transform="rotate(-15 57.6124 12.7969)" stroke="white" />
    </g>
    <path d="M84.2788 32.5001C84.1794 32.5065 84.092 32.5198 84.0165 32.54C83.9788 32.5501 83.9224 32.7169 83.8473 33.0403C83.7671 33.3449 83.6713 33.7042 83.5598 34.1182C83.4621 34.5084 83.367 34.9079 83.2744 35.3169C83.1767 35.7071 83.1009 35.9902 83.0471 36.1664C82.8413 36.6058 82.5497 36.876 82.1724 36.9771C81.8894 37.0529 81.6189 37.0243 81.3608 36.8912C81.0977 36.7393 80.9155 36.4747 80.8144 36.0974C80.774 35.9465 80.7506 35.8213 80.7442 35.7219C81.0735 34.4609 81.3797 33.2263 81.6626 32.0182C81.9455 30.8101 82.2497 29.6063 82.5754 28.4069C82.92 27.2025 83.3004 26.0188 83.7167 24.8558C84.1279 23.6739 84.6317 22.4976 85.2279 21.3268C85.3195 21.1405 85.4357 21.0083 85.5765 20.9301C85.7123 20.8331 85.8437 20.7574 85.9707 20.7032C86.2536 20.6273 86.5173 20.6679 86.7615 20.8249C87.0247 20.9768 87.2155 21.1986 87.3341 21.4904C87.3332 21.7131 87.305 21.8723 87.2498 21.9679L87.4459 21.7941C87.6911 21.7284 87.9635 21.7262 88.263 21.7874C88.5814 21.8437 88.8477 22.0453 89.062 22.3923C89.496 23.4083 89.9507 24.3885 90.4262 25.3327C90.8966 26.2582 91.36 27.1955 91.8166 28.1449C92.287 29.0703 92.7316 30.0127 93.1505 30.9722C93.5882 31.9265 93.97 32.9364 94.2958 34.0016C94.3969 34.3789 94.3621 34.7017 94.1913 34.9698C94.0155 35.2192 93.7955 35.3792 93.5314 35.45C93.2484 35.5258 92.9521 35.5142 92.6425 35.4152C92.3517 35.3111 92.1319 35.0566 91.9829 34.6517C91.5913 33.3412 91.1445 32.1264 90.6424 31.0072C90.6148 31.0551 90.5186 31.1112 90.3539 31.1755C89.3352 31.4485 88.3038 31.6743 87.2597 31.853C86.2346 32.0266 85.2409 32.2423 84.2788 32.5001ZM84.6626 29.9708C85.3519 29.8265 86.1569 29.6614 87.0776 29.4753C87.9983 29.2893 88.836 29.0952 89.5906 28.893L89.6189 28.8854L89.5527 28.7515C89.4456 28.578 89.3062 28.3221 89.1347 27.9839C88.9632 27.6457 88.7747 27.2817 88.5692 26.8919C88.3825 26.4971 88.1839 26.0953 87.9733 25.6867C87.7765 25.2541 87.5923 24.8687 87.4208 24.5305C87.2493 24.1923 87.1049 23.9176 86.9877 23.7063C86.8893 23.4901 86.8401 23.3819 86.8401 23.3819C86.7107 23.5783 86.5482 23.9151 86.3525 24.3921C86.1794 24.8025 85.9738 25.3934 85.7356 26.1649C85.4925 26.9176 85.2087 27.9339 84.8844 29.2138L84.6626 29.9708Z" fill="black" />
    <path d="M87.7118 45.6252C90.2078 44.9564 92.9243 47.1879 93.608 49.7393L94.597 53.4303C95.9355 51.2214 99.3353 50.0833 102.27 52.0875C104.278 49.9317 107.811 50.3598 109.32 52.0614C114.257 49.7222 117.47 52.3626 118.904 57.7141C118.981 58.0042 119.258 59.1224 119.336 59.41C121.108 65.9523 118.231 68.4131 118.791 73.5665C118.93 74.8509 118.108 76.0445 116.86 76.3789L98.7388 81.2345C96.7981 81.7533 94.6467 81.1297 93.3007 79.4684C91.1102 76.7845 82.4616 70.613 77.775 62.7816C76.7744 60.9791 81.0584 65.5253 81.6361 63.8176C82.6967 61.9805 86.3582 63.5876 87.3241 63.3287C88.0659 64.1653 85.6979 60.7452 86.7347 61.1288L85.5412 56.6747L84.3477 52.2206C83.6839 49.7431 85.252 46.2843 87.7118 45.6252Z" fill="#D59D76" />
    <path d="M97.3689 83.4133L117.653 77.9781C119.054 77.6029 120.493 78.4339 120.868 79.8343L122.227 84.9054C122.602 86.3058 121.771 87.7451 120.371 88.1203L100.087 93.5555C98.6862 93.9308 97.2468 93.0998 96.8716 91.6994L95.5128 86.6283C95.1375 85.2279 95.9686 83.7885 97.3689 83.4133ZM115.91 81.6157C114.743 81.9284 114.051 83.1278 114.364 84.2948C114.676 85.4618 115.876 86.1543 117.043 85.8416C118.21 85.5289 118.902 84.3295 118.59 83.1625C118.277 81.9955 117.077 81.303 115.91 81.6157Z" fill="#4C6EF5" />
    <defs>
        <filter id="filter0_d" x="0" y="0" width="56" height="56" filterUnits="userSpaceOnUse" color-interpolation-filters="sRGB">
            <feFlood flood-opacity="0" result="BackgroundImageFix" />
            <feColorMatrix in="SourceAlpha" type="matrix" values="0 0 0 0 0 0 0 0 0 0 0 0 0 0 0 0 0 0 127 0" result="hardAlpha" />
            <feOffset dy="4" />
            <feGaussianBlur stdDeviation="2" />
            <feComposite in2="hardAlpha" operator="out" />
            <feColorMatrix type="matrix" values="0 0 0 0 0 0 0 0 0 0 0 0 0 0 0 0 0 0 0.25 0" />
            <feBlend mode="normal" in2="BackgroundImageFix" result="effect1_dropShadow" />
            <feBlend mode="normal" in="SourceGraphic" in2="effect1_dropShadow" result="shape" />
        </filter>
        <filter id="filter1_d" x="168" y="0" width="56" height="56" filterUnits="userSpaceOnUse" color-interpolation-filters="sRGB">
            <feFlood flood-opacity="0" result="BackgroundImageFix" />
            <feColorMatrix in="SourceAlpha" type="matrix" values="0 0 0 0 0 0 0 0 0 0 0 0 0 0 0 0 0 0 127 0" result="hardAlpha" />
            <feOffset dy="4" />
            <feGaussianBlur stdDeviation="2" />
            <feComposite in2="hardAlpha" operator="out" />
            <feColorMatrix type="matrix" values="0 0 0 0 0 0 0 0 0 0 0 0 0 0 0 0 0 0 0.25 0" />
            <feBlend mode="normal" in2="BackgroundImageFix" result="effect1_dropShadow" />
            <feBlend mode="normal" in="SourceGraphic" in2="effect1_dropShadow" result="shape" />
        </filter>
        <filter id="filter2_d" x="112" y="0" width="56" height="56" filterUnits="userSpaceOnUse" color-interpolation-filters="sRGB">
            <feFlood flood-opacity="0" result="BackgroundImageFix" />
            <feColorMatrix in="SourceAlpha" type="matrix" values="0 0 0 0 0 0 0 0 0 0 0 0 0 0 0 0 0 0 127 0" result="hardAlpha" />
            <feOffset dy="4" />
            <feGaussianBlur stdDeviation="2" />
            <feComposite in2="hardAlpha" operator="out" />
            <feColorMatrix type="matrix" values="0 0 0 0 0 0 0 0 0 0 0 0 0 0 0 0 0 0 0.25 0" />
            <feBlend mode="normal" in2="BackgroundImageFix" result="effect1_dropShadow" />
            <feBlend mode="normal" in="SourceGraphic" in2="effect1_dropShadow" result="shape" />
        </filter>
        <filter id="filter3_d" x="53" y="0.0200043" width="66.7878" height="66.7878" filterUnits="userSpaceOnUse" color-interpolation-filters="sRGB">
            <feFlood flood-opacity="0" result="BackgroundImageFix" />
            <feColorMatrix in="SourceAlpha" type="matrix" values="0 0 0 0 0 0 0 0 0 0 0 0 0 0 0 0 0 0 127 0" result="hardAlpha" />
            <feOffset dy="4" />
            <feGaussianBlur stdDeviation="2" />
            <feComposite in2="hardAlpha" operator="out" />
            <feColorMatrix type="matrix" values="0 0 0 0 0 0 0 0 0 0 0 0 0 0 0 0 0 0 0.25 0" />
            <feBlend mode="normal" in2="BackgroundImageFix" result="effect1_dropShadow" />
            <feBlend mode="normal" in="SourceGraphic" in2="effect1_dropShadow" result="shape" />
        </filter>
    </defs>
</svg>
    